
        <svg xmlns="http://www.w3.org/2000/svg" xmlns:xlink="http://www.w3.org/1999/xlink" version="1.1" width="100%" 
        height="100%" viewBox="0 0 3136.507772822192 1053.6693714712933">
			
			<g transform="scale(6.825388641109592) translate(10, 10)">
				<defs id="SvgjsDefs3446"></defs><g id="SvgjsG3447" featureKey="symbolContainer" transform="matrix(0.7106811100163636,0,0,0.7106811100163636,0.00024839842493152355,0.00012258953645153978)" fill="#c73897"><path xmlns="http://www.w3.org/2000/svg" d="M17.914 148.907zM22.657 154.94a90.586 90.586 0 0 0 5.861 6.251c6.914 6.805 15.159 12.525 24.004 16.851 3.259 1.526 6.265 3.107 9.787 4.468.88.338 1.779.7 2.724 1.026.953.302 1.941.604 2.974.903 1.027.321 2.122.549 3.267.786 1.146.23 2.336.493 3.614.624a91.24 91.24 0 0 1-18.434-5.99 93.833 93.833 0 0 1-16.873-9.842c-10.548-7.727-19.57-17.648-26.16-28.989-.272-.339-.685-.985-1.18-1.808l-.796-1.348-.803-1.551c-.534-1.076-1.149-2.168-1.62-3.226a71.281 71.281 0 0 0-1.326-2.748c2.048 5.101 4.412 9.563 7.059 13.806a93.473 93.473 0 0 0 3.869 5.697c-.192-.259-.392-.511-.583-.771a95.012 95.012 0 0 0 4.6 5.841l.016.02zM18.039 149.078l-.125-.17.125.17zM1.335 106.042l-.483-3.875c.256 2.365.553 5.008 1.096 7.654l-.327-1.879a23.961 23.961 0 0 1-.286-1.9zM85.812 185.575c6.652.673 13.628.472 20.461-.609 6.837-1.077 13.524-2.987 19.741-5.449-11.45 4.503-23.602 6.506-35.49 6.171-1.591-.025-3.159 0-4.712-.113z"></path><path xmlns="http://www.w3.org/2000/svg" d="M46.426 171.967l-.259-.165c.087.055.172.111.259.165zM46.167 171.802zM43.653 170.135zM56.077 177.284A83.837 83.837 0 0 0 73.2 183.1c-9.688-2.21-18.805-6.109-26.774-11.133 3.06 1.947 6.277 3.749 9.651 5.317zM177.002 107.094c.098-1.58.296-3.238.346-4.027.594-5.071.77-9.401.745-13.745-.11-.783-.425-2.25-.55-3.918-.153-1.672-.378-3.309-.568-4.924-.289-1.601-.538-3.186-.854-4.74 2.275 11.617 2.237 23.279.144 34.282a94.97 94.97 0 0 1 .737-2.928z"></path><path xmlns="http://www.w3.org/2000/svg" d="M.887 83.482c.848-6.9 2.653-13.626 4.37-18.107l-.695 3.28c.429-.961 1.122-3.194 2.067-5.557l.682-1.802.753-1.747c.5-1.131.92-2.203 1.363-3.025-.303.771-.595 1.602-.947 2.436-.345.837-.732 1.687-1.101 2.542l1.514-3.409A111.863 111.863 0 0 0 4.954 69.8c-1.133 4.352-2.029 8.926-2.511 13.032-.14 1.024-.189 2.024-.28 2.978-.067.954-.183 1.864-.192 2.724-.042 1.719-.1 3.224-.071 4.428.105 2.409.25 3.61.459 2.939.411-1.333.403-8.188 1.837-16.767.767-4.276 1.868-8.966 3.362-13.561 1.483-4.599 3.427-9.058 5.44-12.992l-.592 1.292-.545 1.331-1.116 2.691-1.024 2.78-.521 1.402c-.153.476-.308.954-.461 1.434-1.32 3.807-2.307 7.816-3.167 11.857l-.559 3.052c-.205 1.014-.292 2.046-.444 3.067-.318 2.041-.434 4.097-.611 6.129-.199 4.074-.239 8.098.13 11.946-.015-.914-.03-1.726-.017-2.512l.115-2.355c.048-.809.039-1.667.115-2.65.07-.983.134-2.091.19-3.402.391-6.608 1.572-13.15 3.408-19.481 1.75-6.358 3.814-11.957 6.889-17.03l.801-1.526c.542-1.024.993-2.034 1.566-3.064.653-1.13 1.278-1.976 1.784-2.751.521-.767.963-1.441 1.469-2.095l3.682-5.082c.075-.009-.022.185-.2.473a28.962 28.962 0 0 1 1.959-2.49c.755-.875 1.488-1.803 2.109-2.569.146-.007.288-.011.623-.251 8.65-9.197 19.295-16.692 31.291-21.417l2.667-1.039 2.7-.899 1.343-.448 1.36-.38 2.71-.753c1.55-.373 3.12-.751 4.721-1.091l2.437-.426c.819-.141 1.642-.3 2.484-.378 1.674-.201 3.134-.625 3.921-.729 4.369-.249 8.73-.199 13.849.216.397.007 1.015.043 1.732.082.717.041 1.537.061 2.332.134.932.21 1.927.418 2.971.621 6.369.988 12.527 2.754 18.386 5.103l-.007-.028 2.244.894 2.29 1.058c1.571.684 3.11 1.559 4.7 2.383.798.407 1.554.904 2.338 1.354.77.474 1.576.894 2.32 1.412 1.508 1.002 3.037 1.961 4.446 3.032a99.912 99.912 0 0 1 6.6 5.198c.046.042.094.081.14.122l.042.038 1.457 1.322 1.394 1.391 1.395 1.392c.462.467.89.967 1.337 1.449-.216-.35-.208-.491-.2-.63-.689-.66-1.504-1.441-2.309-2.21 1.343 1.222 2.515 2.327 3.477 3.229.371.474.776.94 1.16 1.449l1.186 1.566 1.261 1.629 1.255 1.752c2.226 2.838 4.191 5.874 6.057 8.97.864 1.588 1.817 3.131 2.586 4.774l1.213 2.436 1.092 2.497c.314.533.192.022.231-.068 1.225 2.962 2.21 6.042 3.102 9.146a88.212 88.212 0 0 1 3.408 17.211c.225 1.378.321 2.772.52 4.153l-.123 2.924c-.001 1.103.057 2.206.01 3.311l-.128 3.326c-.016.75-.124 1.569-.187 2.459-.084.888-.128 1.846-.256 2.856l-.412 3.192c-.132 1.119-.387 2.269-.583 3.471a90.635 90.635 0 0 1-4.312 15.482c-.242.826-.427 1.486-.592 1.855-.627 1.501-1.296 2.954-1.942 4.385-.723 1.394-1.386 2.788-2.127 4.108a86.09 86.09 0 0 1-7.949 12.379c-.336.439-.649.885-.987 1.297l-.998 1.206c-.66.779-1.25 1.558-1.876 2.234-1.251 1.352-2.301 2.606-3.286 3.549-1.128 1.178-1.027 1.233-.246.665a35.07 35.07 0 0 0 1.608-1.262l2.122-1.914c.776-.677 1.519-1.441 2.235-2.161.708-.725 1.416-1.386 1.962-1.984 1.101-1.191 1.824-1.926 1.67-1.599-1.777 3.345-5.013 7.471-9.743 12.035-2.413 2.227-5.128 4.647-8.339 6.98-1.566 1.221-3.307 2.338-5.082 3.558-1.834 1.123-3.708 2.353-5.757 3.445-4.484 2.442 3.365-1.475 3.577-1.512a22.87 22.87 0 0 1-2.377 1.64c-1.478.786-2.943 1.597-4.474 2.273-.895.411-1.774.855-2.679 1.239l-2.729 1.122 1.444-.568c2.952-1.173 5.711-2.555 8.202-3.922-.936.566-1.96 1.221-3.082 1.812-1.203.622-2.448 1.302-3.697 1.909l-3.625 1.686c12.968-4.711 24.885-12.507 34.319-22.67 4.723-5.066 8.935-10.631 12.369-16.651a93.904 93.904 0 0 0 8.288-18.999c-3.154 9.93-8.071 19.052-13.981 26.765 10.744-14.507 17.15-32.293 17.999-50.636-.001 1.011-.101 2.018-.168 3.025-.083 1.007-.123 2.018-.241 3.022-.257 2.005-.441 4.021-.827 6.009-.624 4-1.636 7.931-2.782 11.815 2.262-7.021 3.613-14.424 4.145-21.869.554-7.451.092-14.947-1.057-22.211 1.974 9.622 2.301 20.524.619 31.298 1.182-6.949 1.482-14.112 1.028-21.214-.102-2.713-.422-5.407-.685-7.901-.377-2.476-.662-4.762-1.027-6.611 1.445 6.826 2.015 12.648 2.293 18.136-.267-11.977-2.748-24.112-7.62-35.511 2.659 6.191 4.842 12.851 6.175 19.698 1.34 6.84 1.897 13.838 1.58 20.57-.015-.788.018-1.575-.028-2.366l-.107-2.391c.287 10.85-1.384 21.604-4.696 31.717-1.662 5.056-3.715 9.969-6.2 14.644a95.521 95.521 0 0 1-8.56 13.316c3.673-4.29 7.551-10.354 10.646-17.015 3.081-6.675 5.368-13.894 6.941-20.199-2.314 11.322-6.907 22.494-13.571 32.471-6.646 9.985-15.351 18.764-25.423 25.502-10.06 6.759-21.474 11.437-33.187 13.748a94.608 94.608 0 0 1-17.657 1.809 94.462 94.462 0 0 1-17.361-1.515l3.005.571c1.002.19 2.018.295 3.026.445 2.016.324 4.055.446 6.087.633 4.073.229 8.168.306 12.25-.005 4.089-.217 8.152-.827 12.196-1.572 2.006-.456 4.036-.829 6.017-1.414.994-.278 2-.521 2.987-.83l2.955-.958c-1.492.462-3.062 1.074-4.739 1.523l-2.101.618a91.772 91.772 0 0 0 12.91-4.496 89.46 89.46 0 0 0 5.651-2.705 96.653 96.653 0 0 1-10.714 4.872 98.407 98.407 0 0 1-21.66 5.382c-1.11.176-2.122.231-3.029.326l-2.428.24c-1.429.113-2.484.164-3.222.245-1.477.147-1.687.284-1.099.397.587.113 1.971.203 3.673.251 1.697-.01 3.71-.101 5.541-.268 18.397-1.887 35.288-9.107 48.824-19.916 13.545-10.811 23.919-25.172 29.701-41.467.363-.946.642-1.922.944-2.89.293-.971.617-1.932.882-2.912.491-1.97 1.072-3.917 1.448-5.917l.619-2.985.487-3.012.241-1.507.172-1.517.342-3.034c.698-8.114.422-16.315-.812-24.363-.66-4.554-1.82-9.961-3.315-14.777l-1.15-3.484c-.4-1.107-.825-2.151-1.203-3.133l-.557-1.415-.571-1.271-.981-2.124c-3.134-6.359-7.072-12.424-11.682-18.065-4.605-5.643-9.896-10.868-15.861-15.418l-2.244-1.703-2.327-1.608-1.166-.806-1.203-.756-2.417-1.508c-3.295-1.904-6.67-3.739-10.228-5.261-3.521-1.598-7.206-2.895-10.957-4.055-1.895-.52-3.781-1.1-5.724-1.499-.968-.209-1.928-.463-2.907-.638l-2.944-.521C100.363.01 93.04-.285 85.724.265 78.412.83 71.069 2.218 64.028 4.614l-2.635.913c-.881.297-1.73.682-2.597 1.019-.858.359-1.735.673-2.577 1.069l-2.532 1.173c-.852.376-1.675.808-2.496 1.245l-2.469 1.297-2.402 1.412c-.8.472-1.606.933-2.372 1.458l-2.324 1.528c-.782.497-1.506 1.078-2.261 1.612-.741.554-1.51 1.07-2.226 1.654l-2.157 1.737c-.729.565-1.417 1.178-2.103 1.792l-2.063 1.83-1.971 1.919c-.656.639-1.319 1.271-1.93 1.951-5.031 5.298-9.451 11.078-13.066 17.194A99.518 99.518 0 0 0 5.18 64.379C.805 77.299-.45 90.402.134 102.237c-.126-4.872-.147-11.859.753-18.755zm141.132 90.446a96.807 96.807 0 0 0 8.765-6.389c-2.84 2.339-5.758 4.499-8.765 6.389zm40.217-54.282c-.299.901-.552 1.791-.882 2.641l-.957 2.523-.466 1.248-.513 1.231a108.54 108.54 0 0 0-.997 2.501 97.307 97.307 0 0 1-6.587 13.35c-2.521 4.275-5.443 8.281-8.565 12.04-1.542 1.899-3.222 3.66-4.874 5.421l-2.581 2.523c-.847.848-1.774 1.604-2.652 2.404-.736.64-1.478 1.266-2.225 1.882a90.696 90.696 0 0 0 7.896-7.312 89.808 89.808 0 0 1-11.689 10.188c-1.036.722-2.037 1.496-3.113 2.176l-3.247 2.069-3.43 1.949c-1.167.648-2.399 1.224-3.634 1.855a74.206 74.206 0 0 1 2.685-1.508c1.021-.567 2.092-1.237 3.138-1.85 1.054-.601 2.012-1.261 2.808-1.813.796-.552 1.42-1.01 1.745-1.306-.464.315-.936.617-1.406.924a92.477 92.477 0 0 0 1.507-1.015c-.021.023-.065.059-.101.091 10.932-7.466 20.245-17.277 27.223-28.462 7.009-11.175 11.57-23.781 13.46-36.601-.41 5.142-1.352 9.248-2.543 12.851zm-6.654-65.352zm-8.448-12.698a92.37 92.37 0 0 1 7.773 14.352c.25.549.486 1.106.719 1.664 4.963 12.154 7.221 25.192 6.89 38.036.084-4.25-.198-8.498-.669-12.71-.533-4.854-1.518-9.65-2.824-14.341-2.562-9.407-6.723-18.323-12.005-26.451.485.67.996 1.396 1.525 2.166a32.826 32.826 0 0 1 1.59 2.463l-.638-1.109-.689-1.079-1.378-2.156c-.938-1.424-1.955-2.796-2.934-4.192-1.062-1.334-2.069-2.712-3.174-4.011-.836-.953-1.637-1.938-2.485-2.879 2.992 3.155 5.801 6.54 8.299 10.247zM96.886 1.152c1.467.078 2.937.221 4.407.331 1.204.101 2.402.279 3.588.413.356.015.732.039 1.204.092.471.065 1.034.186 1.769.354 5.469.912 10.459 2.283 14.001 3.699 6.798 2.573 13.123 5.774 18.86 9.471 5.739 3.69 10.889 7.887 15.246 12.471 2.008 2.179 1.422 1.704.315.646l1.662 1.764c-.736-.734-1.459-1.478-2.206-2.196l-2.301-2.09c.56.49 1.918 1.663 2.845 2.522-7.389-7.539-16.026-13.799-25.375-18.404-9.356-4.603-19.431-7.446-29.502-8.581 1.618.18 2.412.22 3.168.24-1.085-.127-2.173-.301-3.274-.401-1.479-.097-2.955-.229-4.423-.301l-4.36-.103c1.444-.001 2.907.039 4.376.073z"></path><path xmlns="http://www.w3.org/2000/svg" d="M115.942 184.69l.426-.125c-.446.12-.885.252-1.334.366.304-.076.609-.15.908-.241zM160.424 146.151c4.235-5.587 7.977-12.263 10.366-18.014l-.029.006c-6.061 14.322-15.892 26.66-28.16 35.744a159.12 159.12 0 0 0 6.418-4.703c2.698-2.82 7.213-7.406 11.405-13.033zM35.35 162.846c7.172 6.412 15.821 11.992 25.448 15.751 3.754 1.413 7.585 2.651 11.503 3.523 1.944.502 3.929.812 5.899 1.181.987.175 1.987.272 2.979.412.994.129 1.986.275 2.987.333-4.519-.501-9.005-1.251-13.372-2.44-4.364-1.185-8.642-2.65-12.769-4.449a97.4 97.4 0 0 1-11.894-6.314c-3.786-2.408-7.376-5.097-10.781-7.997zM123.877 174.277l-2.219.871-2.266.756c-1.5.54-3.047.944-4.59 1.373 1.551-.39 3.111-.754 4.624-1.254l2.283-.698 2.23-.815c-.086-.044-.594.055-.062-.233zM97.683 179.965c-1.16.099-2.326.09-3.494.102-1.168.014-2.338.039-3.509-.038l1.576.148c.482.031.916.068 1.295.113 1.381-.118 2.752-.151 4.132-.325zM51.441 169.209c1.341.787 2.765 1.48 4.178 2.244.354.194.996.415 1.801.709-1.721-.739-3.37-1.655-5.046-2.505-.83-.441-1.629-.935-2.443-1.395-.812-.464-1.621-.927-2.389-1.445l.937.626.977.584 1.985 1.182z"></path></g><g id="SvgjsG3448" featureKey="monogramFeature-0" transform="matrix(1.5220416140754571,0,0,1.5220416140754571,34.9999994556755,16.785522371884014)" fill="#c73897"><path d="M34.38 4.920000000000002 c-0.06 0 -0.12 -0.06 -0.12 -0.12 s0.06 -0.06 0.12 -0.06 l0.06 0 c0.06 0 0.06 0 0.06 0.06 s-0.06 0.12 -0.12 0.12 z M30.96 5.340000000000003 l-0.12 -0.12 l0 -0.06 l0.12 -0.06 c0.12 0 0.12 0.06 0.12 0.12 c-0.06 0.06 -0.06 0.12 -0.12 0.12 z M32.34 5.159999999999997 l-0.12 0 l0 -0.06 c0 -0.06 0.18 -0.12 0.42 -0.12 l0.24 0 l-0.06 0.06 c-0.12 0.12 -0.36 0.12 -0.48 0.12 z M36.18 4.979999999999997 l-0.18 0 c0 -0.06 0.06 -0.12 0.12 -0.12 l0.12 -0.06 l0.06 0.06 c0 0.06 -0.06 0.12 -0.12 0.12 z M5.82 61.38 l-0.06 0 l-0.48 -0.24 c-0.12 -0.12 -0.24 -0.18 -0.3 -0.18 c0 0 -0.12 0 -0.18 -0.12 c-0.12 -0.12 -0.18 -0.12 -0.24 -0.12 l-0.24 0.06 l-0.24 0.12 l-0.3 -0.12 c-0.42 -0.24 -1.56 -1.2 -1.56 -1.32 c0 -0.06 -0.12 -0.24 -0.24 -0.36 c-0.36 -0.36 -0.78 -1.62 -0.78 -2.28 c0 -0.18 0.06 -0.3 0.12 -0.36 l0.12 -0.12 l-0.24 0.06 l-0.06 -0.24 l0.06 -1.14 c0.12 -1.68 0.12 -2.04 0.3 -2.04 l0.06 -0.12 l-0.06 -0.06 c-0.06 -0.06 -0.06 -0.18 -0.06 -0.36 c0 -0.12 0 -0.3 0.06 -0.36 l0.06 -0.36 l-0.06 -0.54 l0.06 -0.18 l0.06 0 l0.12 -0.06 l-0.12 -0.36 l0.06 -0.06 c0.06 0 0.12 -0.12 0.12 -0.3 l0 -0.18 l-0.12 0 l0 -0.06 c0 -0.12 0 -0.24 0.12 -0.3 l0.12 -0.24 l-0.06 -0.48 c0 -0.42 0.06 -0.84 0.18 -0.84 c0.06 0 0.12 -0.06 0.18 -0.18 l0 -0.06 c0 -0.12 0 -0.18 -0.06 -0.18 s-0.12 0.06 -0.12 0.18 l-0.06 0.06 l-0.06 -0.06 c0 -0.12 0.06 -0.3 0.18 -0.42 l0.06 -0.36 l-0.06 -0.36 l0.06 -0.24 c0.12 -0.06 0.24 -0.24 0.24 -0.42 c0 -0.12 0.06 -0.42 0.12 -0.54 c0 -0.18 0 -0.3 -0.12 -0.36 l-0.06 -0.06 l0.12 -0.42 c0.12 -0.24 0.18 -0.6 0.18 -0.78 s0.06 -0.36 0.12 -0.36 l0.06 -0.06 l-0.06 -0.06 c0 -0.12 0 -0.18 0.06 -0.18 l0.12 -0.24 c0 -0.12 0 -0.18 -0.06 -0.18 s-0.12 -0.06 -0.12 -0.12 s0.06 -0.06 0.12 -0.06 s0.3 -0.84 0.3 -1.32 l0 -0.12 c0 -0.12 -0.12 -0.42 -0.3 -0.6 c-0.42 -0.54 -0.6 -1.08 -0.72 -1.8 l0 -0.36 c0 -0.54 0.18 -0.66 1.08 -1.02 c0.78 -0.36 0.78 -0.36 1.08 -1.38 c0.18 -0.54 0.24 -1.08 0.24 -1.14 l0 -0.12 l0.06 -0.18 c0.06 -0.06 0.18 -0.42 0.24 -0.78 c0 -0.3 0.12 -0.78 0.12 -0.96 l0.12 -0.54 c0 -0.12 0.12 -0.36 0.18 -0.54 l0.12 -0.42 l-0.12 -0.42 l0.12 0.06 l0.12 0 c0.06 0 0.06 -0.06 0.06 -0.42 s0.06 -0.66 0.18 -0.78 s0.18 -0.3 0.18 -0.42 l0 -0.24 c0 -0.36 0.06 -0.96 0.18 -1.02 c0.12 0 0.3 -0.48 0.3 -0.78 c0 -0.06 0.06 -0.18 0.18 -0.3 l0.12 -0.06 l-0.18 0 l0.06 -0.12 l0 -0.3 l0.24 -0.3 l0.12 -0.3 l-0.06 -0.18 c0 -0.18 0.06 -0.48 0.18 -0.84 l1.68 -6.54 c0.12 -0.24 0.3 -0.84 0.42 -1.26 c0.12 -0.48 0.3 -0.9 0.36 -0.96 l0 -0.06 c0 -0.06 0 -0.12 -0.12 -0.12 l-0.12 0 l-1.14 0.36 l-1.02 0.24 l-0.36 -0.18 l-0.54 0.12 c-0.48 0.18 -1.14 0.48 -1.14 0.6 l0.06 0 c0.12 0 0.42 -0.12 0.78 -0.24 l0.84 -0.18 l-0.18 0.06 c-0.12 0.06 -0.84 0.36 -1.56 0.6 c-0.72 0.3 -1.26 0.54 -1.26 0.6 s0.06 0.18 0.18 0.3 c0.18 0.18 0.3 0.54 0.3 0.78 l-0.06 0.24 c-0.06 0.06 -0.06 0.12 -0.18 0.12 l-0.24 -0.06 c-0.24 -0.06 -0.36 -0.18 -0.36 -0.24 l-0.18 0 c-0.06 0 -0.12 -0.06 -0.18 -0.12 c-0.06 -0.18 -0.3 -0.36 -0.54 -0.48 l-1.44 -1.08 c-0.48 -0.48 -1.08 -1.86 -1.08 -2.64 s0.36 -1.02 1.74 -1.62 c1.02 -0.36 1.8 -0.66 2.04 -0.66 c0.06 0 0.06 0 0.06 0.06 l0 0.06 l0.12 0 c0.12 0 0.3 0 0.48 -0.06 c0.12 0 0.18 -0.06 0.18 -0.12 l-0.12 -0.06 l-0.48 0.12 l-0.06 -0.06 l0.6 -0.24 l0.42 -0.12 l0.24 0.12 l0.06 0.06 l0 -0.12 c0 -0.12 0.12 -0.18 0.24 -0.24 l0.18 0 l-0.12 0.24 l0.12 -0.06 c0.12 0 0.3 -0.06 0.42 -0.12 l0.18 -0.06 l-0.12 0 c-0.12 0 -0.18 0 -0.18 -0.06 s0.24 -0.18 0.6 -0.3 c0.24 -0.12 0.42 -0.12 0.54 -0.12 c0.06 0 0.12 0 0.18 0.06 l0.12 0.06 l0.42 -0.12 c0.24 -0.06 0.48 -0.06 0.6 -0.06 l0.18 0.06 l-0.06 -0.12 c0 -0.06 0.06 -0.06 0.12 -0.12 l0.18 -0.06 l0.12 0.12 c0.06 0 0.12 -0.06 0.18 -0.12 c0.06 -0.18 0.24 -0.24 0.54 -0.3 c0.24 0 0.48 -0.06 0.54 -0.12 s0.3 -0.18 0.54 -0.18 c0.3 -0.06 0.48 -0.12 0.48 -0.18 s0.12 -0.06 0.24 -0.06 l0.12 0 c0.12 0 0.18 0 0.24 -0.06 c0 -0.06 0.18 -0.12 0.42 -0.18 l0.3 -0.06 c0.06 0 0.06 0 0.06 0.06 s0.06 0.06 0.06 0.06 l0.06 0 l0.06 -0.06 l0 -0.06 c0 -0.12 0.06 -0.12 0.24 -0.18 c0.18 0 0.3 0.06 0.3 0.12 c0.06 0 0.12 -0.06 0.18 -0.12 c0.18 -0.18 0.54 -0.36 1.38 -0.6 c0.66 -0.18 1.26 -0.3 1.38 -0.3 l0.36 0 c0.6 0 1.08 -0.06 1.08 -0.18 l0 -0.06 l0.18 0 c0.12 0 0.24 0 0.24 -0.06 s0.12 -0.12 0.3 -0.12 l0.18 0 c0.12 0 0.18 -0.06 0.18 -0.12 l0 -0.06 c0 -0.18 0.3 -0.3 1.02 -0.48 c0.3 -0.06 0.9 -0.18 1.26 -0.3 c0.42 -0.12 0.9 -0.24 1.14 -0.24 c0.24 -0.06 0.42 -0.12 0.48 -0.18 s1.14 -0.36 2.22 -0.54 l0.42 -0.06 c0.06 0 0.12 0 0.12 0.06 s0 0.12 0.06 0.12 s0.12 -0.12 0.12 -0.18 c0 -0.12 0.12 -0.18 0.18 -0.18 c0.12 0 0.18 0.06 0.24 0.12 c0 0.06 -0.06 0.06 -0.12 0.12 l-0.12 0 l0.3 0.06 l0.3 -0.06 c0 -0.06 0.24 -0.12 0.42 -0.18 c0.24 0 0.3 -0.06 0.3 -0.18 l0 -0.06 c0 -0.06 0.06 -0.12 0.3 -0.18 c0.18 0 0.3 0.06 0.3 0.12 l0.06 0.06 l0.12 -0.06 c0.24 -0.24 1.74 -0.48 4.38 -0.78 c0.9 -0.12 1.44 -0.12 1.68 -0.12 c0.18 0 0.24 0 0.24 0.06 c0 0.12 0.06 0.18 0.18 0.18 s0.18 -0.06 0.18 -0.12 l0 -0.06 c0 -0.12 0.54 -0.36 0.72 -0.36 l0.06 0 c0.06 0.06 0.3 0.12 0.48 0.18 c0.24 0.06 0.48 0.12 0.48 0.18 c0 0 0.12 0.06 0.3 0.06 l0.78 0 c0.24 0 0.48 0.06 0.48 0.12 l0 0.06 l-0.24 0 l0.24 0.12 l0.18 -0.06 c0.12 0 0.3 0 0.36 0.12 c0.12 0.06 0.3 0.06 0.36 0.06 l0.42 0.06 c0.18 0 1.56 1.08 1.56 1.32 c0 0.12 -0.06 0.24 -0.12 0.3 s-0.12 0.06 -0.12 0.12 l0.3 0.54 l-0.06 0.06 l-0.18 -0.06 l-0.24 -0.06 l-0.66 -0.18 l0.42 0.42 c0 0.06 -0.12 0.06 -0.36 0.12 l-0.24 0 l0.36 0.24 l0 0.06 l-0.24 -0.06 c-0.24 -0.06 -0.54 -0.06 -0.72 -0.06 s-0.48 0 -0.66 -0.06 c-0.18 0 -0.36 0 -0.42 0.12 l-0.06 0.06 l-0.24 -0.12 l0.12 -0.06 c0.12 0 0.18 -0.06 0.18 -0.06 c0 -0.12 -1.02 -0.18 -1.86 -0.18 l-0.6 0 c-0.6 0 -0.72 0.06 -0.78 0.18 l-0.36 0.18 c-0.12 0 -0.18 0 -0.18 -0.06 l0.12 -0.24 l-0.12 0 c-0.12 0 -0.18 0.06 -0.18 0.12 s-0.36 0.24 -0.66 0.3 c-0.06 0 -0.06 0 -0.06 0.06 l0 0.06 l0.12 0.06 l0.24 -0.06 c0.18 0 0.42 0 0.42 0.06 c0 0.18 -0.72 0.42 -1.26 0.42 l-2.76 0.36 l-0.3 -0.06 l-0.18 -0.12 l-0.06 0.12 c0 0.12 -0.12 0.18 -0.24 0.18 s-0.6 0.12 -1.02 0.3 c-0.66 0.18 -1.2 0.24 -1.44 0.24 l-0.06 0 l0.06 -0.06 l0.06 -0.18 l-0.06 0 c-0.12 0 -0.48 0.18 -0.48 0.3 s-0.12 0.12 -0.24 0.12 s-0.3 -0.06 -0.36 -0.12 c0 -0.06 -0.18 -0.12 -0.36 -0.12 c-0.12 0 -0.3 0.12 -0.36 0.18 l-0.06 0.12 c0 0.06 0.06 0.06 0.18 0.06 l0.12 0 l-1.02 0.42 l-0.24 -0.06 l-0.72 0.18 c-0.36 0.18 -0.66 0.3 -0.78 0.3 c-0.06 0 -0.12 0.06 -0.12 0.12 s-0.24 0.12 -0.54 0.12 s-0.78 0.12 -1.02 0.18 c-1.08 0.36 -1.68 0.48 -1.86 0.48 c-0.06 0 -0.06 0 -0.06 -0.06 c0 -0.12 -0.12 -0.12 -0.24 -0.12 c-0.18 0 -0.3 0.06 -0.3 0.12 s0.12 0.12 0.18 0.12 l0.12 0 l-0.06 0.06 c-0.06 0.06 -0.3 0.18 -0.48 0.18 c-0.24 0 -0.6 0.12 -1.74 0.6 c-0.18 0.06 -0.54 0.18 -0.72 0.18 c-0.48 0.12 -0.9 0.3 -0.9 0.42 c0 0.06 0.06 0.12 0.12 0.12 l0.6 -0.18 c0.18 -0.12 0.66 -0.3 1.02 -0.36 l0.48 -0.06 l0.06 0 c0 0.06 -0.42 0.24 -1.14 0.42 c-0.54 0.18 -1.02 0.36 -1.14 0.36 c-0.06 0.06 -0.18 0.36 -0.24 0.72 c0 0.3 -0.18 0.9 -0.3 1.32 s-0.36 1.14 -0.48 1.68 c-0.18 0.48 -0.36 1.14 -0.54 1.5 c-0.12 0.3 -0.18 0.66 -0.18 0.78 c0 0.06 -0.06 0.18 -0.12 0.18 s-0.06 0.06 -0.06 0.12 l-0.18 0.9 c0 0.06 -0.06 0.36 -0.18 0.54 c-0.18 0.3 -0.3 0.84 -0.42 1.44 c0 0.06 0 0.18 -0.06 0.24 l0 0.3 l0.06 0.06 l-0.06 0.06 c-0.06 0 -0.12 0.12 -0.12 0.24 s-0.06 0.3 -0.12 0.36 l-0.12 0.24 l0.06 0.06 c0.06 0 0.06 0.06 0.06 0.18 l0 0.18 c-0.06 0.3 -0.06 0.42 -0.12 0.42 l-0.18 -0.06 c-0.12 0 -0.18 0.3 -0.24 0.78 c-0.06 0.12 -0.12 0.36 -0.18 0.42 c-0.18 0.42 -0.48 1.86 -0.48 2.16 c0 0.18 -0.06 0.36 -0.12 0.42 s-0.12 0.06 -0.12 0.12 l0.12 0 c0.12 0 0.18 0.06 0.18 0.12 c-0.06 0.06 -0.12 0.12 -0.18 0.12 s-0.18 0.18 -0.3 0.48 l-0.18 0.72 c-0.06 0.06 -0.12 0.36 -0.12 0.6 c-0.06 0.3 -0.12 0.72 -0.24 1.08 l-0.12 0.6 c0.06 0 0.12 -0.06 0.18 -0.12 l0.12 -0.06 l-0.06 0.36 l-0.42 -0.12 l0 0.18 l-0.18 1.08 l-0.24 1.08 c0 0.06 0 0.06 0.06 0.06 l0.3 -0.54 l0 0.3 c0 0.12 0 0.18 0.12 0.18 l0.9 -0.24 c0.36 -0.12 0.96 -0.24 1.32 -0.24 c0.3 -0.06 0.54 -0.06 0.54 -0.12 s0.06 -0.12 0.18 -0.12 l0.12 -0.06 l0.12 0.06 c0 0.06 0.06 0.06 0.12 0.06 l0.66 -0.12 c0.42 -0.12 0.84 -0.24 1.02 -0.24 l0.96 -0.24 l1.38 -0.3 c0.36 0 0.72 -0.12 0.84 -0.18 c0.18 -0.12 0.42 -0.18 0.6 -0.18 s0.3 0 0.3 0.06 l-0.36 0.24 l0.36 -0.06 c2.52 -0.54 3.3 -0.72 3.54 -0.72 c0.06 0 0.06 0 0.06 0.06 l0 0.12 l0.12 0.06 c0.06 0 0.12 -0.06 0.12 -0.12 l0.06 -0.12 l0.06 0.12 l0.12 0.06 l0 -0.06 c0 -0.12 0.42 -0.3 0.6 -0.3 l0.36 0.12 l0.78 -0.12 l0.12 0.06 l-0.12 0.36 c0 0.06 0.06 0.06 0.18 0.06 l-0.48 0.3 l0.06 0 c0 0.06 -0.54 0.36 -0.72 0.36 c-0.12 0.06 -0.3 0.12 -0.42 0.24 c-0.06 0.06 -0.12 0.06 -0.12 0.12 l0.36 0.18 l-0.42 0.3 l-0.6 0.3 c0 0.06 0.06 0.12 0.12 0.12 c0.12 0.06 0.12 0.06 0.12 0.12 l-0.12 0 c-0.06 0 -0.18 0 -0.3 -0.06 l-0.12 -0.06 c-0.24 0 -0.54 0.24 -0.54 0.42 c0 0.06 0 0.06 -0.06 0.06 l-0.12 -0.12 l-0.12 0.06 c-0.06 0 -0.24 0 -0.3 -0.06 l-0.18 -0.06 l-0.18 0.12 c0 0.06 0.06 0.06 0.18 0.12 c0.12 0 0.18 0 0.18 0.06 l-0.06 0.06 l-0.06 0.12 l0.3 0.18 l-0.18 0 l-0.36 0.18 c0 0.12 -0.18 0.24 -0.36 0.3 l-0.18 0.06 c-0.06 0 -0.06 -0.06 -0.06 -0.06 l0 -0.18 l-0.18 0.12 c-0.12 0.06 -0.24 0.18 -0.24 0.24 c-0.12 0.12 -0.66 0.3 -0.96 0.3 l-0.24 -0.06 c-0.06 0 -0.06 0 -0.06 -0.06 l0.12 -0.06 c0.06 -0.06 0.12 -0.06 0.12 -0.12 l-0.18 0 c-0.12 0 -0.18 0.06 -0.18 0.12 l0 0.18 c0 0.06 -0.06 0.12 -0.48 0.24 c-0.18 0.06 -0.3 0.12 -0.3 0.18 s0.06 0.12 0.24 0.12 l0.24 0.06 l-0.24 0.12 l-0.72 0.18 c-0.24 0 -0.72 0.12 -1.08 0.24 c-0.3 0.12 -0.84 0.3 -1.14 0.36 l-1.14 0.3 c-0.36 0.12 -0.48 0.12 -0.48 0.18 l0.24 0.06 c0 0.06 -0.24 0.06 -0.84 0.18 c-1.86 0.3 -3.96 1.02 -4.2 1.5 l-0.12 0.18 l0.06 -0.18 c0 -0.12 0 -0.18 -0.06 -0.18 l-0.06 0 c-0.06 0 -0.12 0.18 -0.18 0.3 c0 0.18 -0.06 0.3 -0.12 0.42 l-0.12 0.12 l0.06 0.06 l0.06 0.12 c0 0.12 -0.06 0.3 -0.18 0.36 l-0.06 0.06 l0.12 0.06 l0.06 0.06 l-0.12 0.54 l0.12 0.24 l0.06 -0.18 c0.06 -0.54 0.12 -0.6 0.18 -0.6 l-0.06 0.84 c-0.12 0.48 -0.18 0.66 -0.24 0.66 l-0.06 0 c-0.06 0 -0.12 0.12 -0.24 0.42 c0 0.3 -0.12 0.72 -0.18 0.96 l-0.12 0.84 l0.06 0.24 l0.24 -0.3 l-0.12 1.02 c-0.12 0.72 -0.24 1.14 -0.3 1.14 l-0.06 -0.12 c0 -0.06 0 -0.12 -0.06 -0.12 s-0.12 0.24 -0.18 0.54 c-0.06 0.54 -0.06 0.6 -0.12 0.66 l0 0.84 c0.06 0 0.12 -0.36 0.18 -0.78 s0.18 -0.84 0.24 -0.9 l0.06 -0.06 l0 0.06 c0 0.12 0 0.36 -0.12 0.84 l-0.06 0.72 l-0.12 0.12 c-0.12 0.06 -0.24 0.06 -0.3 0.06 l-0.06 0 l0.06 0.36 l-0.18 -0.12 l0.06 0.12 l0.12 0.18 l-0.18 0.12 l0.12 -0.18 c0 -0.06 -0.06 0 -0.12 0.06 l-0.06 0.12 l0.12 0.24 c-0.06 0.06 -0.06 0.24 -0.06 0.42 l0.06 0.18 c0 0.06 -0.06 0.06 -0.06 0.06 l-0.06 0 c-0.06 0 -0.06 0 -0.06 0.06 l0.06 0.3 l-0.12 0.18 l0.06 0.06 l0.06 0.12 l-0.06 0.18 l-0.06 0.48 c0 0.12 -0.06 0.3 -0.12 0.36 l-0.06 0.42 l0 0.18 c0 0.18 0 0.42 -0.06 0.42 c-0.06 0.06 -0.06 0.36 -0.06 0.78 l0.06 0.54 l-0.06 0.3 c-0.06 0.06 -0.06 0.12 -0.06 0.24 c0 0.18 0.12 0.36 0.18 0.36 l0.18 -0.06 l-0.3 0.54 l0 0.66 c0 0.06 0 0.06 0.06 0.06 l0.18 -0.06 l0.06 0.06 c0 0.06 -0.06 0.12 -0.12 0.12 s-0.12 0.24 -0.12 0.54 l0 0.3 c0 0.24 0.06 0.36 0.12 0.42 c0.12 0.06 0.36 0.36 0.54 0.66 s0.24 0.42 0.24 0.54 l-0.12 0.24 c-0.12 0.18 -0.3 0.24 -0.36 0.24 l-0.06 0 l0.12 0.12 l0.06 0.12 c0 0.06 0 0.06 -0.12 0.12 z M33.18 5.579999999999998 c0.18 -0.06 0.3 -0.06 0.3 -0.12 c-0.06 -0.06 -0.18 -0.06 -0.36 -0.06 s-0.3 0.06 -0.36 0.12 c0 0 0.18 0.06 0.42 0.06 z M31.5 5.700000000000003 l0.12 -0.06 l-0.06 0 c0 -0.06 -0.06 -0.06 -0.06 -0.06 s-0.06 0 -0.06 0.06 c0 0 0 0.06 0.06 0.06 z M38.52 5.219999999999999 l-0.18 0 c-0.12 0 -0.36 0 -0.48 -0.06 l-0.18 -0.06 l0.18 -0.06 l0.48 0.06 z M29.7 5.939999999999998 l0.12 -0.06 l-0.06 0 s0 -0.06 -0.06 -0.06 l-0.06 0.12 l0.06 0 z M36.06 5.399999999999999 l0.12 -0.06 l-0.18 0 l-0.06 0.06 l0.12 0 z M28.68 6.119999999999997 l0 -0.06 l-0.18 0 c0 0.06 0 0.06 0.12 0.06 l0.06 0 z M23.16 6.780000000000001 l-0.18 0 l0.18 -0.06 l0.6 -0.18 l-0.18 0.12 c-0.12 0.06 -0.3 0.12 -0.42 0.12 z M24.42 7.020000000000003 c0.12 0 0.18 -0.06 0.18 -0.12 l-0.12 -0.12 l-0.18 0.12 c0 0.06 0 0.12 0.12 0.12 z M23.28 7.32 l0.06 -0.06 c-0.06 0 -0.06 -0.06 -0.06 -0.06 l-0.12 0.06 c0 0.06 0 0.06 0.12 0.06 z M21.18 7.799999999999997 c0.24 0 0.42 -0.06 0.54 -0.12 l0.06 -0.12 l-0.12 0 l-0.72 0.24 l0.24 0 z M18.24 8.159999999999997 c-0.06 0 -0.12 -0.06 -0.12 -0.12 l0.12 -0.06 l0.06 0 c0.06 0 0.06 0 0.06 0.06 s-0.06 0.12 -0.12 0.12 z M20.1 8.100000000000001 l0 -0.06 l-0.12 0 l0 0.06 l0.12 0 z M18.54 8.340000000000003 l-0.12 0 l0 -0.06 l0.12 0 l0 0.06 z M19.14 8.520000000000003 l0 -0.12 c0 -0.06 -0.06 -0.12 -0.12 -0.12 l-0.06 0.06 l0.06 0.06 c0 0.06 0.06 0.12 0.12 0.12 z M29.22 7.799999999999997 l0.12 -0.06 l0 -0.06 c0 -0.06 -0.06 -0.06 -0.06 -0.06 l-0.18 0 l-0.12 0.12 c0 0.06 0.06 0.06 0.24 0.06 z M14.88 9.060000000000002 l-0.06 0 c-0.12 0 -0.12 0 -0.12 -0.06 l0.18 0 l0 0.06 z M13.56 9.600000000000001 l0 -0.12 c0 -0.12 0.12 -0.18 0.24 -0.18 c0.06 -0.06 0.3 -0.06 0.42 -0.12 l0.12 0 l-0.24 0.18 c-0.3 0.18 -0.48 0.24 -0.54 0.24 z M24.12 8.64 c0.18 -0.06 0.24 -0.06 0.24 -0.12 c0 -0.12 0 -0.12 -0.06 -0.12 l-0.24 0.12 l-0.06 0.12 l0.12 0 z M23.58 8.759999999999998 c0.06 0 0.18 -0.06 0.18 -0.12 l0 -0.06 l-0.12 0 c-0.06 0 -0.18 0.06 -0.18 0.12 z M16.08 9.299999999999997 c0.12 0 0.18 -0.06 0.18 -0.06 l-0.12 -0.06 l-0.18 0.06 z M25.44 8.520000000000003 c0.12 0 0.18 -0.06 0.18 -0.06 l-0.12 -0.06 l-0.18 0.06 c0 0.06 0.06 0.06 0.12 0.06 z M12.66 9.780000000000001 l-0.12 0 l0.06 -0.12 l0.24 -0.12 c0.06 0 0.06 0.06 0.06 0.12 s-0.06 0.12 -0.24 0.12 z M31.38 8.399999999999999 c0.18 0 0.36 -0.06 0.54 -0.24 c0.12 -0.12 0.18 -0.12 0.18 -0.18 l-0.12 0.06 c-0.12 0.06 -0.3 0.12 -0.48 0.12 c-0.12 0.06 -0.24 0.12 -0.24 0.18 s0.06 0.06 0.12 0.06 z M32.82 8.219999999999999 l0 -0.18 c0 -0.06 -0.12 -0.12 -0.24 -0.12 s-0.18 0.06 -0.18 0.12 s0.06 0.06 0.18 0.12 z M40.98 7.619999999999997 c-0.06 0 -0.12 -0.06 -0.12 -0.12 c0 -0.12 0 -0.18 0.06 -0.18 s0.12 0.06 0.12 0.18 l0 0.06 s0 0.06 -0.06 0.06 z M34.68 7.920000000000002 l0 -0.06 l-0.18 0 l-0.12 0.06 l0.3 0 z M22.08 9.299999999999997 l0.3 -0.06 c0.3 0 0.48 -0.06 0.48 -0.18 c0 -0.06 0.06 -0.12 0.24 -0.12 l0.12 -0.06 l0 -0.06 l-0.06 0 c-0.24 0 -1.02 0.3 -1.14 0.42 c0 0.06 0 0.06 0.06 0.06 z M30 8.46 l0.12 -0.06 l-0.12 -0.12 l-0.12 0 l-0.06 0.06 c0 0.06 0.06 0.12 0.18 0.12 z M30.66 8.399999999999999 l0.18 -0.06 c0 -0.12 -0.12 -0.12 -0.24 -0.12 l-0.06 0.12 z M11.34 10.079999999999998 l-0.06 0 l0 -0.06 l0.18 0 c0 0.06 0 0.06 -0.12 0.06 z M31.08 8.46 l0.06 -0.06 l-0.06 -0.06 l-0.12 0.06 c0 0.06 0 0.06 0.12 0.06 z M13.92 9.899999999999999 l0.12 -0.06 c0 -0.06 -0.06 -0.06 -0.12 -0.06 l-0.18 0.12 l0.18 0 z M27.18 9.299999999999997 c0.06 0 0.06 0 0.06 -0.12 s0.12 -0.18 0.54 -0.24 c0.6 -0.06 0.96 -0.18 0.96 -0.24 l0 -0.06 l-0.12 0 l-0.12 0.06 l-0.18 0.06 l-0.18 -0.06 l-0.12 0 c-0.06 0 -0.36 0 -0.6 0.06 c-0.3 0.06 -0.48 0.06 -0.48 0.18 l0.18 0.3 z M37.14 8.159999999999997 l0.12 -0.06 l-0.06 -0.06 c-0.06 -0.06 -0.24 -0.06 -0.36 -0.06 l-0.24 0.06 z M32.76 8.939999999999998 l-0.18 -0.18 l0.12 0 c0.12 0 0.18 -0.06 0.24 -0.12 c0 -0.06 -0.12 -0.06 -0.3 -0.06 l-1.32 0.06 c-0.18 0 -0.36 0 -0.36 0.06 s-0.06 0.06 -0.18 0.06 l-0.12 0 l0.18 0.12 l0.36 0.06 l0.84 -0.12 l0.24 0.06 c0.06 0.06 0.12 0.06 0.24 0.06 l0.24 0 z M21.54 9.600000000000001 l0.06 -0.12 l-0.06 0 l-0.12 0.06 s0 0.06 0.12 0.06 z M25.74 10.259999999999998 c0.12 0 0.12 -0.06 0.12 -0.12 s0.06 -0.06 0.12 -0.12 c0.06 0 0.18 -0.06 0.3 -0.18 c0.06 -0.06 0.3 -0.18 0.42 -0.18 l0.24 -0.06 l-0.3 -0.06 c-0.18 0 -0.3 -0.12 -0.3 -0.18 s0.12 -0.06 0.18 -0.06 l0.06 0 l0 -0.12 c0 -0.06 -0.06 -0.12 -0.12 -0.12 c0 0.06 -0.06 0.06 -0.06 0.06 l-0.48 0.18 c-0.18 0.06 -0.3 0.12 -0.3 0.18 l0.06 0.06 l0.3 -0.12 l0.06 0.06 c0 0.12 -0.06 0.18 -0.12 0.18 c-0.36 0.18 -0.48 0.18 -0.48 0.24 l0.12 0.06 c0.06 0 0.12 0.06 0.12 0.12 l0 0.06 c0 0.06 0 0.12 0.06 0.12 z M35.64 8.579999999999998 l-0.06 0 l-0.12 -0.06 c0 -0.06 0.12 -0.12 0.18 -0.12 c0.12 0 0.18 0.06 0.18 0.06 c0 0.06 -0.06 0.12 -0.18 0.12 z M28.5 9.899999999999999 c0.12 -0.06 0.18 -0.12 0.18 -0.18 l-0.06 -0.06 l-0.18 0.06 c-0.06 0 -0.12 0 -0.12 -0.06 s0.06 -0.18 0.18 -0.3 l0.06 -0.12 c0 -0.06 0 -0.06 -0.12 -0.06 l-0.36 0.06 l-0.36 -0.12 l-0.12 -0.06 l0.06 0.24 c0 0.06 -0.06 0.06 -0.18 0.12 l-0.18 0 l0.18 0.12 c0.12 0.12 0.36 0.18 0.54 0.18 l0.3 0.12 c0 0.06 0.12 0.06 0.18 0.06 z M30.42 8.939999999999998 l0.06 -0.06 c0 -0.06 -0.06 -0.06 -0.06 -0.06 c-0.06 0 -0.06 0.06 -0.06 0.06 l0 0.06 l0.06 0 z M38.52 8.280000000000001 l0.06 -0.06 l0 -0.06 l-0.06 0 c-0.06 0 -0.06 0 -0.06 0.06 z M29.34 9 l0.6 -0.06 l-0.18 -0.06 l-0.12 0.06 l-0.24 0 z M24.48 9.659999999999997 c0.06 0 0.12 -0.06 0.12 -0.12 l-0.06 -0.12 c-0.06 0 -0.12 0.06 -0.12 0.12 l0 0.06 s0 0.06 0.06 0.06 z M31.98 9.119999999999997 c0.06 0 0.18 -0.06 0.18 -0.12 l0 -0.06 c0 -0.06 0 -0.06 -0.06 -0.06 c-0.12 0.06 -0.24 0.12 -0.24 0.18 l0 0.06 l0.12 0 z M36.6 8.64 c-0.06 0 -0.06 0 -0.06 -0.06 l0.06 -0.06 l0.12 0.06 s0 0.06 -0.12 0.06 z M31.44 9.299999999999997 l0.24 -0.12 c0 -0.06 -0.12 -0.12 -0.3 -0.12 c-0.12 0 -0.24 0.06 -0.24 0.12 s0.12 0.12 0.3 0.12 z M34.92 9 c-0.48 0 -0.78 0 -0.78 -0.06 s0.3 -0.12 0.72 -0.18 c0.42 0 0.78 0 0.78 0.06 s-0.36 0.12 -0.72 0.18 z M27.18 9.600000000000001 c0 -0.06 0 -0.12 -0.06 -0.12 l0 -0.06 c-0.06 0 -0.06 0.06 -0.06 0.12 s0.06 0.06 0.06 0.06 l0.06 0 z M23.58 10.020000000000003 l0.3 -0.06 c0.12 -0.06 0.12 -0.12 0.12 -0.18 s0 -0.06 -0.12 -0.06 l-0.12 0 c-0.18 0.06 -0.3 0.12 -0.3 0.18 c0.06 0.12 0.06 0.12 0.12 0.12 z M30.48 9.479999999999997 l0.06 -0.06 l0 -0.06 c0 -0.06 -0.06 -0.12 -0.12 -0.12 s-0.06 0.06 -0.06 0.12 s0.06 0.12 0.12 0.12 z M29.22 9.659999999999997 c0.12 0 0.12 -0.06 0.12 -0.12 s-0.18 -0.12 -0.36 -0.12 c-0.06 0 -0.12 0 -0.12 0.06 l-0.06 0 l0.18 0.12 z M7.44 11.46 l0 -0.06 c0.06 -0.06 0.18 -0.12 0.3 -0.12 l0.18 -0.06 c0 0.06 -0.06 0.06 -0.12 0.12 c-0.18 0.12 -0.3 0.12 -0.36 0.12 z M22.26 10.979999999999997 c0.06 0 0.18 -0.06 0.3 -0.18 c0.06 -0.06 0.18 -0.12 0.3 -0.12 l0.12 0 l0.36 -0.12 l0.12 -0.18 c0 -0.06 0 -0.12 -0.12 -0.18 c-0.06 -0.12 -0.18 -0.18 -0.3 -0.18 l-0.06 0 c-0.18 0 -0.24 0.06 -0.24 0.12 c0 0 0.06 0.06 0.24 0.06 s0.3 0 0.36 0.06 l0.06 0.06 l-0.06 0.06 l-0.12 -0.06 c-0.06 0 -0.18 0 -0.18 0.06 l0 0.06 l-0.18 0 c-0.24 0 -1.02 0.24 -1.02 0.36 s0.24 0.18 0.42 0.18 z M22.38 10.259999999999998 c0.12 0 0.18 -0.06 0.18 -0.06 l0 -0.06 c0 -0.06 0 -0.06 -0.06 -0.06 l-0.12 0 l-0.24 0.12 c0 0.06 0.12 0.06 0.24 0.06 z M25.98 9.96 c-0.06 0 -0.06 -0.06 -0.06 -0.06 c0 -0.06 0 -0.06 0.06 -0.06 l0.06 0 l0 0.06 z M29.88 9.600000000000001 l0 -0.06 l-0.18 0 c0 0.06 0 0.06 0.06 0.06 l0.12 0 z M17.82 10.619999999999997 l0.12 -0.06 l-0.06 -0.06 l-0.12 0.06 l-0.06 0.06 l0.12 0 z M21.66 10.5 l0.24 -0.12 c0 -0.06 0 -0.06 -0.06 -0.06 l-0.12 0 c-0.12 0 -0.24 0.06 -0.24 0.12 s0.06 0.06 0.18 0.06 z M27 10.079999999999998 c0.06 0 0.12 -0.06 0.12 -0.12 l-0.06 -0.12 c-0.06 0 -0.06 0.06 -0.12 0.12 l0 0.06 s0 0.06 0.06 0.06 z M24.6 10.259999999999998 l0.06 -0.12 l-0.12 -0.06 l0 0.06 c0 0.12 0 0.12 0.06 0.12 z M23.76 10.439999999999998 c0.06 0 0.12 -0.06 0.12 -0.12 l-0.12 -0.06 c-0.12 0 -0.12 0.06 -0.12 0.06 c0 0.06 0.06 0.12 0.12 0.12 z M24.24 10.380000000000003 c0.06 0 0.06 0 0.06 -0.06 s-0.06 -0.12 -0.12 -0.12 s-0.06 0.06 -0.06 0.12 z M6.96 11.759999999999998 l0.12 -0.06 l-0.12 -0.06 s-0.06 0 -0.06 0.06 z M27.6 10.14 l0.06 -0.06 c0 -0.06 -0.06 -0.06 -0.12 -0.12 l-0.06 0 l0 0.06 c0 0.06 0.06 0.12 0.12 0.12 z M20.94 10.68 l0.06 -0.06 c0 -0.06 -0.06 -0.06 -0.06 -0.06 c-0.06 0 -0.06 0.06 -0.06 0.06 l0 0.06 l0.06 0 z M19.44 11.100000000000001 l0.18 -0.06 l0.96 -0.3 l-0.12 0 c-0.42 0 -1.08 0.18 -1.08 0.3 z M23.58 10.86 c0.06 0 0.12 -0.06 0.18 -0.18 c0 -0.06 -0.06 -0.12 -0.18 -0.12 c-0.06 0 -0.12 0.06 -0.12 0.12 l0 0.06 c0 0.06 0.06 0.12 0.12 0.12 z M21.6 10.86 c0.12 -0.06 0.12 -0.06 0.12 -0.12 l-0.12 0 s-0.06 0 -0.06 0.06 z M18.48 11.399999999999999 c0.12 0 0.24 -0.06 0.36 -0.18 l0.06 -0.06 l-0.24 0 c-0.18 0.06 -0.3 0.12 -0.3 0.18 z M22.98 11.04 c0.12 0 0.24 -0.06 0.3 -0.12 l0 -0.06 l-0.12 -0.06 l-0.3 0.12 l-0.06 0.12 l0.18 0 z M19.8 11.46 c0.12 -0.06 0.18 -0.12 0.18 -0.18 s-0.06 -0.06 -0.06 -0.06 l-0.06 0 c-0.06 0 -0.18 0.06 -0.18 0.18 l0 0.06 l0.12 0 z M26.52 10.920000000000002 l0.06 -0.06 c0.24 -0.12 0.66 -0.24 0.84 -0.24 l0.12 0 l0 0.06 l-0.06 0.06 z M16.86 11.880000000000003 c0.06 0 0.24 0 0.42 -0.06 c0.12 -0.06 0.36 -0.12 0.54 -0.12 l0.12 0 c0.06 0 0.12 0 0.12 0.06 l0.06 0.06 l0.18 -0.12 l-0.12 -0.06 c-0.06 0 -0.06 -0.06 -0.06 -0.12 s0 -0.06 -0.06 -0.06 l-0.3 0.06 c-0.24 0 -0.54 0.06 -0.78 0.18 l-0.24 0.06 c0 0.06 0.06 0.06 0.12 0.12 z M20.7 11.759999999999998 c0.06 0 0.12 -0.06 0.12 -0.12 l0.06 -0.06 l-0.06 -0.06 z M15.54 12.240000000000002 c0.12 0 0.18 0 0.18 -0.06 s0.06 -0.06 0.18 -0.06 l0.12 0 c0.12 0 0.3 -0.06 0.3 -0.12 s-0.12 -0.06 -0.24 -0.06 c-0.42 0.06 -0.78 0.18 -0.78 0.24 s0.06 0.06 0.24 0.06 z M25.02 11.280000000000001 l-0.18 0 l0.06 -0.06 l0.24 0 z M24.72 11.399999999999999 c-0.06 0 -0.12 0 -0.12 -0.06 l0.06 -0.12 c0.06 0.06 0.06 0.12 0.06 0.18 z M19.5 12 c0.3 0 0.84 -0.06 0.96 -0.18 l0 -0.06 c0 -0.06 -0.18 -0.12 -0.3 -0.12 l-0.12 0 c-0.6 0.18 -0.78 0.24 -0.78 0.3 l0.06 0.06 l0.18 0 z M22.38 12 l-0.12 -0.06 c0 -0.12 0.6 -0.36 0.9 -0.36 l0.18 0 c0.06 0 0.06 0 0.06 -0.06 s0.06 -0.06 0.12 -0.06 l0.06 0 c0.06 0 0.24 0 0.36 -0.06 c0.06 -0.06 0.12 -0.06 0.18 -0.06 l0.24 0 l0.06 0.06 c0 0.06 -0.12 0.06 -0.42 0.12 s-0.6 0.18 -0.66 0.24 l-0.18 0.06 l-0.06 0 l-0.48 0.06 z M22.02 12.060000000000002 l-0.18 0 c0 -0.06 0.06 -0.12 0.18 -0.12 l0.12 -0.06 l0.06 0.06 c0 0.06 -0.12 0.12 -0.18 0.12 z M21.36 12.240000000000002 l-0.12 0 l0.06 -0.12 c0.06 -0.06 0.18 -0.12 0.3 -0.12 c0.06 0 0.06 0 0.06 0.06 l0 0.06 c0 0.06 -0.18 0.12 -0.3 0.12 z M17.82 12.600000000000001 l0.12 -0.06 c0.06 -0.06 0.12 -0.06 0.12 -0.12 c-0.06 0 -0.12 0 -0.18 0.06 z M17.04 12.780000000000001 l0.24 -0.06 l-0.48 0 l0 0.06 l0.24 0 z M19.38 12.780000000000001 l0 -0.06 c0.12 -0.06 0.36 -0.18 0.66 -0.18 l0.24 -0.06 l0.06 0 l-0.06 0.06 c-0.18 0.12 -0.72 0.24 -0.9 0.24 z M16.32 12.96 l0.18 -0.06 l-0.24 -0.12 l-0.06 0.06 c-0.06 0 -0.06 0 -0.06 0.06 s0.06 0.06 0.18 0.06 z M15.42 13.259999999999998 c0.24 -0.06 0.42 -0.12 0.42 -0.18 l0.06 -0.06 l-0.12 0 l-0.42 0.12 l-0.18 0.12 l0.24 0 z M19.02 12.899999999999999 c0 0 -0.06 0 -0.06 -0.06 s0 -0.06 0.06 -0.06 l0.06 0.06 z M18.72 12.96 l-0.06 0 l0 -0.06 l0.18 0 s0 0.06 -0.12 0.06 z M17.58 13.259999999999998 l-0.06 0 c0 -0.06 0.12 -0.12 0.3 -0.12 c0.06 -0.06 0.12 -0.06 0.18 -0.06 l0 0.06 c-0.06 0.06 -0.3 0.12 -0.42 0.12 z M7.32 16.439999999999998 l0 -0.06 l-0.12 0 l0 0.06 l0.12 0 z M4.8 17.28 c0.12 0 0.12 -0.06 0.12 -0.06 l-0.18 0 c0 0.06 0 0.06 0.06 0.06 z M11.1 26.880000000000003 l0.18 -0.54 l0.06 -0.12 l0 0.12 l-0.12 0.36 z M10.92 27.840000000000003 l0 -0.12 c0 -0.06 0.06 -0.12 0.12 -0.18 l0.06 0.06 l-0.06 0.06 c-0.06 0.12 -0.06 0.18 -0.12 0.18 z M10.92 28.14 l-0.12 -0.06 l0.06 -0.12 l0.06 0 l0 0.18 z M10.8 28.44 l-0.06 -0.06 c0 -0.06 0 -0.06 0.06 -0.06 l0.06 0.06 z M9.9 32.22 l-0.12 -0.06 l0.06 -0.12 l0.06 0 l0 0.18 z M9.66 33 l-0.06 -0.06 c0 -0.06 0 -0.24 0.06 -0.36 l0.12 -0.18 l0 0.24 c-0.06 0.24 -0.06 0.36 -0.12 0.36 z M20.94 33.3 l-0.12 0 l0.06 -0.06 c0.12 -0.12 0.18 -0.12 0.24 -0.12 s0.06 0 0.06 0.06 z M9.24 34.379999999999995 l-0.06 -0.06 c0 -0.06 0.06 -0.12 0.12 -0.18 l0.12 0 c0 0.06 -0.06 0.18 -0.12 0.18 z M19.32 33.66 l-0.18 0 l0.06 -0.06 c0.12 -0.12 0.24 -0.12 0.3 -0.18 l0.12 0.06 l0 0.06 c-0.06 0.06 -0.18 0.12 -0.3 0.12 z M17.16 33.72 l-0.12 0 c-0.06 0 -0.06 0 -0.06 -0.06 l0.18 0 l0 0.06 z M18.54 33.84 c-0.06 0 -0.06 0 -0.06 -0.06 l0 -0.06 c0.06 -0.06 0.18 -0.12 0.3 -0.12 l0.18 0 l-0.06 0.12 z M21.6 33.66 c0.06 0 0.12 0 0.12 -0.06 s-0.06 -0.12 -0.12 -0.12 s-0.12 0.06 -0.12 0.12 l0.06 0.06 l0.06 0 z M9.18 34.92 l-0.06 -0.06 c0 -0.06 0.06 -0.18 0.12 -0.18 c0 -0.06 0.06 -0.06 0.06 -0.06 c0 0.06 0.06 0.06 0.06 0.06 c0 0.06 -0.06 0.18 -0.12 0.18 z M14.58 34.5 l-0.12 -0.12 c0 -0.06 -0.06 -0.06 -0.06 -0.06 l0.12 0 c0.06 0.06 0.12 0.06 0.12 0.12 z M13.62 34.68 l-0.06 -0.06 c0 -0.06 0.06 -0.06 0.06 -0.06 l0.12 0.06 s0 0.06 -0.12 0.06 z M12.9 34.8 l-0.12 0 l0.06 -0.06 l0.24 0 c0 0.06 -0.06 0.06 -0.18 0.06 z M10.68 35.519999999999996 c0.06 0 0.12 0 0.12 -0.12 l0.06 -0.06 l-0.06 0 l-0.12 0.12 l0 0.06 z M24 34.620000000000005 l-0.06 -0.06 c0 -0.06 -0.06 -0.12 -0.12 -0.12 l-0.36 0.12 l-0.12 -0.06 c0 -0.06 0.12 -0.12 0.36 -0.12 l0.18 0 c0.18 0 0.3 0 0.3 0.06 z M21.78 34.86 l0.12 -0.06 c0 -0.06 -0.06 -0.06 -0.18 -0.12 l-0.12 0 l0 0.06 c0 0.06 0.06 0.12 0.18 0.12 z M21.84 35.22 c0.18 0 0.42 0 0.54 -0.12 l0.06 -0.06 c0 -0.06 -0.06 -0.06 -0.18 -0.06 l-0.24 0 c-0.06 0 -0.12 0 -0.12 0.06 c-0.06 0.06 -0.18 0.06 -0.18 0.06 l-0.06 0 l-0.12 0.06 c0 0.06 0.12 0.06 0.3 0.06 z M23.64 34.980000000000004 l-0.3 0 c0.06 -0.06 0.42 -0.18 0.6 -0.18 c0.06 0 0.06 0 0.06 0.06 s-0.18 0.12 -0.36 0.12 z M23.1 35.04 c-0.12 0 -0.12 0 -0.12 -0.06 l0.12 -0.06 l0.06 0.06 s0 0.06 -0.06 0.06 z M21.18 35.4 l-0.06 -0.06 l-0.12 0 l0 0.06 l0.18 0 z M21.42 36 l-0.12 0 l0.3 -0.24 l0 -0.06 c0.06 0 0.06 0.06 0.06 0.12 c0 0.12 -0.06 0.18 -0.24 0.18 z M18.06 37.019999999999996 c0.12 0 0.18 -0.06 0.18 -0.18 c0 -0.06 0.06 -0.12 0.18 -0.12 s0.3 -0.06 0.36 -0.12 l0.72 -0.36 c0.24 -0.06 0.36 -0.12 0.36 -0.18 l-0.12 0 c-0.48 0.06 -1.2 0.24 -1.2 0.3 l0.06 0.06 c0 0.06 0 0.06 -0.12 0.06 c-0.18 0 -0.24 -0.06 -0.3 -0.12 l-0.06 -0.06 l-0.24 0.06 c-0.24 0.06 -0.42 0.18 -0.42 0.24 l0.06 0.06 l0.36 -0.12 l0.12 0.06 l-0.06 0.18 c0 0.18 0 0.24 0.12 0.24 z M20.1 36.42 c0.06 0 0.12 -0.06 0.12 -0.12 c0 0 -0.06 -0.06 -0.18 -0.06 c-0.06 0 -0.12 0.06 -0.12 0.12 s0.06 0.06 0.12 0.06 l0.06 0 z M19.44 36.6 l0 -0.18 l-0.12 0.06 c0.06 0.12 0.06 0.12 0.12 0.12 z M19.2 36.6 l0 -0.06 l-0.06 0 c-0.06 0 -0.12 0 -0.12 0.06 l0.18 0 z M21 36.66 l-0.24 0 l0.18 -0.06 l0.06 0 l0 0.06 z M16.74 37.2 l0.06 -0.06 l-0.06 -0.12 c0 -0.06 0 -0.06 -0.06 -0.06 l0 0.12 z M17.22 37.08 c0.18 0 0.36 -0.06 0.36 -0.12 l-0.06 -0.06 l-0.24 0.06 c-0.24 0.06 -0.36 0.06 -0.36 0.12 l0.3 0 z M18.6 37.08 c0.06 0 0.12 -0.06 0.18 -0.12 l0 -0.06 l-0.12 0.06 l-0.18 0.12 l0.12 0 z M15.48 37.379999999999995 c0.06 0 0.06 -0.06 0.06 -0.12 l-0.12 0 l-0.06 0.06 s0 0.06 0.12 0.06 z M16.26 37.5 c0.06 0 0.12 0 0.12 -0.06 l-0.18 -0.06 l-0.12 0 l0 0.06 z M15.12 37.56 c0.18 0 0.24 0 0.24 -0.06 l-0.24 0 c-0.06 0 -0.12 0 -0.18 0.06 l0.18 0 z M14.52 37.739999999999995 l0 -0.06 l-0.12 0 l0 0.06 l0.12 0 z M17.82 37.86 l0.24 -0.12 c0.24 -0.12 0.48 -0.18 0.72 -0.24 c0.12 0 0.3 0 0.3 0.06 l-0.06 0.06 c-0.06 0.06 -0.36 0.12 -0.72 0.18 z M16.32 38.16 c0.06 0 0.12 -0.12 0.12 -0.12 c0 -0.06 -0.06 -0.12 -0.12 -0.12 s-0.12 0.06 -0.12 0.18 l0.06 0.06 l0.06 0 z M7.68 41.760000000000005 l0 -0.18 l0.12 0.12 z M6.54 42.120000000000005 c0.06 0 0.12 -0.12 0.12 -0.18 l-0.06 -0.12 l-0.06 0 c-0.06 0 -0.12 0.06 -0.12 0.12 c0 0.12 0.06 0.18 0.12 0.18 z M7.68 42 l-0.06 0 l0 -0.06 l0.12 0 z M7.56 42.42 l-0.06 0 l0.06 -0.06 c0 -0.06 0.06 -0.12 0.12 -0.12 l0 0.06 z M7.14 43.86 c0.06 0 0.12 -0.06 0.12 -0.12 l-0.06 -0.12 l-0.12 0.12 c0 0.06 0 0.12 0.06 0.12 z M7.14 44.88 l0 -0.12 c0 -0.12 0 -0.3 0.06 -0.42 c0 0 0.06 0 0.06 -0.06 l0 0.24 c-0.06 0.24 -0.06 0.36 -0.12 0.36 z M7.02 45.96 c-0.06 0 -0.12 -0.18 -0.12 -0.36 c0.06 -0.24 0.12 -0.48 0.18 -0.54 c0.06 0 0.06 0.06 0.06 0.24 c-0.06 0.42 0 0.66 -0.12 0.66 z M5.88 46.68 l0.06 -0.12 l-0.12 -0.06 l0 0.12 c0 0.06 0 0.06 0.06 0.06 z M6.6 47.22 c0.06 0 0.12 -0.06 0.12 -0.24 l0 -0.12 c0 -0.12 0 -0.18 -0.06 -0.18 l-0.12 0.12 c-0.06 0.12 -0.06 0.24 -0.06 0.36 z M6.54 47.64 l0 -0.12 l-0.06 0 s-0.06 0 -0.06 0.06 z M6.06 52.14 l0 -0.48 c0.06 -0.48 0.12 -0.9 0.24 -0.96 l0 0.06 c0 0.3 -0.12 1.26 -0.24 1.38 z M1.62 52.62 l0 -0.18 l-0.06 0 l0 0.06 c0 0.12 0 0.12 0.06 0.12 z M4.56 55.32 l0.12 -0.18 c-0.06 0 -0.12 0 -0.12 0.06 l-0.06 0.06 z"></path></g><g id="SvgjsG3449" featureKey="nameFeature-0" transform="matrix(1.438712687232263,0,0,1.438712687232263,151.99999862793666,5.7930030661362935)" fill="#c73897"><path d="M30.6 11.96 l0 9.36 l-21.24 0 l0 3.12 l15.76 0 l0 3.12 l-18.88 0 l0 -9.36 l21.24 0 l0 -3.12 l-24.36 0 l0 21.8 l3.12 0 l0 -6.24 l3.12 0 l0 9.36 l-9.36 0 l0 -28.04 l30.6 0 z M53.784000000000006 30.64 l1.8 -3.12 l5.44 9.36 l3.6 0 c-0.8 -1.28 -8.4 -14.28 -9.04 -15.56 l-7.84 13.6 l-2.92 5.08 l-10.8 0 c0.6 -1 4.64 -8.04 8.52 -14.8 c2.28 -3.96 4.8 -8.4 7.64 -13.24 l3.6 0 l-7.44 12.88 l-6.92 12.04 l3.6 0 c4.92 -8.68 8 -13.8 12.56 -21.8 c0.28 0.48 14.36 24.88 14.44 24.92 l-10.8 0 z M74.208 21.32 l0 -9.36 l30.6 0 l0 9.36 l-7.52 0 l0 -3.12 l4.4 0 l0 -3.12 l-24.36 0 l0 3.12 l10.64 0 l-0.04 18.68 l3.12 0 l0 -18.68 l3.12 0 l0 21.8 l-9.36 0 l0 -18.68 l-10.6 0 z M135.792 27.84 l8.96 -15.88 l9.92 0 l0 28.04 l-9.36 0 l0 -10.48 l-5.96 10.48 l-7.16 0 l-9.08 -15.92 l0 -5.88 l10.92 18.68 l3.52 0 l10.88 -18.68 l0 18.68 l3.12 0 l0 -21.8 l-5 0 l-10.84 18.72 l-10.68 -18.72 l-5 0 l0 21.8 l3.08 0 l0 -5.88 l3.12 5.36 l0 3.64 l-9.32 0 l0 -28.04 l9.92 0 z M183.616 30.64 l1.8 -3.12 l5.44 9.36 l3.6 0 c-0.8 -1.28 -8.4 -14.28 -9.04 -15.56 l-7.84 13.6 l-2.92 5.08 l-10.8 0 c0.6 -1 4.64 -8.04 8.52 -14.8 c2.28 -3.96 4.8 -8.4 7.64 -13.24 l3.6 0 l-7.44 12.88 l-6.92 12.04 l3.6 0 c4.92 -8.68 8 -13.8 12.56 -21.8 c0.28 0.48 14.36 24.88 14.44 24.92 l-10.8 0 z"></path></g><g id="SvgjsG3450" featureKey="nameFeature-1" transform="matrix(1.3452830639034052,0,0,1.3452830639034052,152,56.9104145043968)" fill="#c73897"><path d="M12.72 24.4 l17.92 0 l0 15.6 l-17.24 0 c-7.48 -0.32 -13.4 -6.48 -13.4 -14 c0 -7.56 5.92 -13.72 13.4 -14.04 l17.24 0 l0 9.4 l-17.24 0 c-2.36 0.2 -4.16 2.24 -4.16 4.6 c0 2.44 1.8 4.36 4.16 4.68 l10.96 0 l0 3.12 l-10.96 0 c-4.04 -0.32 -7.24 -3.64 -7.24 -7.8 c0 -4 3.08 -7.44 7.08 -7.76 l14.24 0 l0 -3.12 l-14.08 0 c-5.72 0.32 -10.28 5.08 -10.28 10.92 c0 5.8 4.56 10.56 10.28 10.88 l14.08 0 l0 -9.36 l-14.76 0 l0 -3.12 z M62.504000000000005 30.64 l1.8 -3.12 l5.44 9.36 l3.6 0 c-0.8 -1.28 -8.4 -14.28 -9.04 -15.56 l-7.84 13.6 l-2.92 5.08 l-10.8 0 c0.6 -1 4.64 -8.04 8.52 -14.8 c2.28 -3.96 4.8 -8.4 7.64 -13.24 l3.6 0 l-7.44 12.88 l-6.92 12.04 l3.6 0 c4.92 -8.68 8 -13.8 12.56 -21.8 c0.28 0.48 14.36 24.88 14.44 24.92 l-10.8 0 z M106.80799999999999 27.84 l8.96 -15.88 l9.92 0 l0 28.04 l-9.36 0 l0 -10.48 l-5.96 10.48 l-7.16 0 l-9.08 -15.92 l0 -5.88 l10.92 18.68 l3.52 0 l10.88 -18.68 l0 18.68 l3.12 0 l0 -21.8 l-5 0 l-10.84 18.72 l-10.68 -18.72 l-5 0 l0 21.8 l3.08 0 l0 -5.88 l3.12 5.36 l0 3.64 l-9.32 0 l0 -28.04 l9.92 0 z M154.632 30.64 l1.8 -3.12 l5.44 9.36 l3.6 0 c-0.8 -1.28 -8.4 -14.28 -9.04 -15.56 l-7.84 13.6 l-2.92 5.08 l-10.8 0 c0.6 -1 4.64 -8.04 8.52 -14.8 c2.28 -3.96 4.8 -8.4 7.64 -13.24 l3.6 0 l-7.44 12.88 l-6.92 12.04 l3.6 0 c4.92 -8.68 8 -13.8 12.56 -21.8 c0.28 0.48 14.36 24.88 14.44 24.92 l-10.8 0 z M186.096 15.079999999999998 l0 15.56 l27.64 0 l0 9.36 l-30.76 0 l0 -3.12 l27.68 0 l0 -3.12 l-27.68 0 l0 -21.8 l9.36 0 l0 15.6 l-3.12 0 l0 -12.48 l-3.12 0 z"></path></g>
			</g>
		</svg>
	