
        <svg xmlns="http://www.w3.org/2000/svg" xmlns:xlink="http://www.w3.org/1999/xlink" version="1.1" width="100%" 
        height="100%" viewBox="0 0 3230.7692307692305 2024.4641812155764">
			
			<g transform="scale(11.538461538461537) translate(10, 10)">
				<defs id="SvgjsDefs2402"><linearGradient id="SvgjsLinearGradient2409"><stop id="SvgjsStop2410" stop-color="#ee2a7b" offset="0"></stop><stop id="SvgjsStop2411" stop-color="#ff7db8" offset="1"></stop></linearGradient><linearGradient id="SvgjsLinearGradient2412"><stop id="SvgjsStop2413" stop-color="#ee2a7b" offset="0"></stop><stop id="SvgjsStop2414" stop-color="#ff7db8" offset="1"></stop></linearGradient></defs><g id="SvgjsG2403" featureKey="monogramFeature-0" transform="matrix(1.35,0,0,1.35,105,-0.3000000000000007)" fill="url(#SvgjsLinearGradient2409)"><path d="M9.84 60 l-1.14 0 c-8.64 0 -8.7 -6.96 -8.7 -12 l0 -20.4 c0 -6.78 2.7 -9.6 8.76 -9.6 l21.48 0 c7.5 0 7.56 6.12 7.56 8.4 c0 5.76 -2.76 9.18 -7.56 9.18 l-2.1 0 c0.18 6.96 -1.74 10.44 -10.44 10.92 l0 4.14 c0 2.82 0 9.36 -7.86 9.36 z M30.24 22.14 l-21.48 0 c-3.3 0 -4.62 0.48 -4.62 5.46 l0 20.4 c0 8.04 1.26 7.86 5.7 7.86 c3.24 0 3.72 -1.26 3.72 -5.22 l0 -8.22 l2.1 0 c8.82 0 8.52 -2.4 8.34 -6.84 l-3.78 0 c-8.82 0 -8.46 -10.5 -1.26 -10.5 c5.04 0 7.8 1.8 8.76 6.36 l2.52 0 c0.78 0 3.42 0 3.42 -5.04 c0 -3.3 -0.48 -4.26 -3.42 -4.26 z M18.96 29.22 c-1.74 0 -1.98 2.22 1.26 2.22 l3.24 0 c-0.66 -1.86 -1.8 -2.22 -4.5 -2.22 z"></path></g><g id="SvgjsG2404" featureKey="nameFeature-0" transform="matrix(0.7893743991449236,0,0,0.7893743991449236,-2.8832695343683548,96.01168649225902)" fill="url(#SvgjsLinearGradient2412)"><path d="M20.293 16.934 l-10.742 0 l0 6.4063 l9.2773 0 l0 5.0977 l-9.2773 0 l0 11.563 l-5.8984 0 l0 -28.223 l16.641 0 l0 5.1563 z M47.8124375 40 l-2.0508 -5.8203 l-11.855 0 l-2.0508 5.8203 l-5.9961 0 l10.391 -28.223 l7.168 0 l10.391 28.223 l-5.9961 0 z M35.625437500000004 29.277 l8.418 0 l-4.1992 -11.973 z M78.04734375 11.777000000000001 l0 5.1563 l-6.6992 0 l0 23.066 l-5.8008 0 l0 -23.066 l-6.7383 0 l0 -5.1563 l19.238 0 z M118.45693750000001 40 l-5.8398 0 l-1.8555 -21.27 l-7.1484 21.27 l-3.7891 0 l-7.1484 -21.27 l-1.875 21.27 l-5.8594 0 l2.3633 -28.223 l8.3594 0 l6.0156 17.715 l6.0938 -17.715 l8.3594 0 z M147.1093125 40 l-2.0508 -5.8203 l-11.855 0 l-2.0508 5.8203 l-5.9961 0 l10.391 -28.223 l7.168 0 l10.391 28.223 l-5.9961 0 z M134.9223125 29.277 l8.418 0 l-4.1992 -11.973 z M187.20665625 40.39063 c-8.1445 0 -14.141 -5.625 -14.141 -14.434 c0 -8.9258 6.1328 -14.57 14.434 -14.57 c5.4492 0 9.9609 2.4023 12.422 6.6406 l-5.1367 2.7344 c-1.4844 -2.8906 -4.1406 -4.2773 -7.2852 -4.2773 c-4.8828 0 -8.5547 3.3594 -8.5547 9.3359 c0 5.7617 3.4375 9.4727 8.7695 9.4727 c3.6133 0 6.9336 -1.7969 7.7344 -5.918 l-7.7148 0 l0 -4.707 l13.262 0 l0 15.332 l-4.6094 0 l0 -3.9063 c-1.8164 2.6758 -4.8633 4.2969 -9.1797 4.2969 z M229.58978125 40 l-2.0508 -5.8203 l-11.855 0 l-2.0508 5.8203 l-5.9961 0 l10.391 -28.223 l7.168 0 l10.391 28.223 l-5.9961 0 z M217.40278125 29.277 l8.418 0 l-4.1992 -11.973 z M275.8006875 40 l-5.8398 0 l-1.8555 -21.27 l-7.1484 21.27 l-3.7891 0 l-7.1484 -21.27 l-1.875 21.27 l-5.8594 0 l2.3633 -28.223 l8.3594 0 l6.0156 17.715 l6.0938 -17.715 l8.3594 0 z M304.4530625 40 l-2.0508 -5.8203 l-11.855 0 l-2.0508 5.8203 l-5.9961 0 l10.391 -28.223 l7.168 0 l10.391 28.223 l-5.9961 0 z M292.2660625 29.277 l8.418 0 l-4.1992 -11.973 z M324.17966875 34.8242 l8.8477 0 l0 5.1758 l-14.707 0 l0 -28.223 l5.8594 0 l0 23.047 z"></path></g><g id="SvgjsG2405" featureKey="sloganFeature-0" transform="matrix(0.8587443733184653,0,0,0.8587443733184653,49.40454673212688,138.1109534426397)" fill="#c73897"><path d="M6.5137 20.19531 c-3.0273 0 -5.3906 -1.4551 -5.8203 -4.1016 l3.0273 -0.69336 c0.19531 1.582 1.3574 2.4023 2.9102 2.4023 c1.1914 0 2.1387 -0.52734 2.1289 -1.7188 c-0.0097656 -1.3281 -1.5723 -1.748 -3.291 -2.2754 c-2.0703 -0.64453 -4.2871 -1.4063 -4.2871 -4.0039 c0 -2.627 2.1484 -4.1113 4.9805 -4.1113 c2.4805 0 4.9805 1.0059 5.5469 3.7109 l-2.832 0.70313 c-0.26367 -1.4063 -1.2109 -2.0215 -2.5391 -2.0215 c-1.1816 0 -2.1875 0.48828 -2.1875 1.6504 c0 1.084 1.3867 1.4453 2.9883 1.9238 c2.1289 0.64453 4.6484 1.4648 4.6484 4.2773 c0 2.998 -2.5098 4.2578 -5.2734 4.2578 z M22.4170328125 17.4121 l4.4238 0 l0 2.5879 l-7.3535 0 l0 -14.111 l2.9297 0 l0 11.523 z M40.32229375 20.19531 c-4.1504 0 -7.2168 -2.832 -7.2168 -7.2559 c0 -4.4336 3.0664 -7.2461 7.2168 -7.2461 c4.1406 0 7.207 2.8125 7.207 7.2461 c0 4.4238 -3.0664 7.2559 -7.207 7.2559 z M40.32229375 17.5098 c2.4316 0 4.2969 -1.709 4.2969 -4.5703 c0 -2.8516 -1.8652 -4.5508 -4.2969 -4.5508 s-4.2969 1.6992 -4.2969 4.5508 c0 2.8613 1.8652 4.5703 4.2969 4.5703 z M61.3232546875 20.19531 c-4.0723 0 -7.0703 -2.8125 -7.0703 -7.2168 c0 -4.4629 3.0664 -7.2852 7.2168 -7.2852 c2.7246 0 4.9805 1.2012 6.2109 3.3203 l-2.5684 1.3672 c-0.74219 -1.4453 -2.0703 -2.1387 -3.6426 -2.1387 c-2.4414 0 -4.2773 1.6797 -4.2773 4.668 c0 2.8809 1.7188 4.7363 4.3848 4.7363 c1.8066 0 3.4668 -0.89844 3.8672 -2.959 l-3.8574 0 l0 -2.3535 l6.6309 0 l0 7.666 l-2.3047 0 l0 -1.9531 c-0.9082 1.3379 -2.4316 2.1484 -4.5898 2.1484 z M85.693828125 20 l-1.0254 -2.9102 l-5.9277 0 l-1.0254 2.9102 l-2.998 0 l5.1953 -14.111 l3.584 0 l5.1953 14.111 l-2.998 0 z M79.599628125 14.6387 l4.209 0 l-2.0996 -5.9863 z M105.4444921875 5.888999999999999 l2.9199 0 l0 14.111 l-3.3887 0 l-6.25 -10.088 l0 10.088 l-2.9199 0 l0 -14.111 l3.3496 0 l6.2891 10.029 l0 -10.029 z M135.3859765625 5.888999999999999 l0 2.5781 l-3.3496 0 l0 11.533 l-2.9004 0 l0 -11.533 l-3.3691 0 l0 -2.5781 l9.6191 0 z M150.781484375 8.467 l-5.2344 0 l0 3.2031 l4.6387 0 l0 2.5488 l-4.6387 0 l0 3.1934 l5.2344 0 l0 2.5879 l-8.1836 0 l0 -14.111 l8.1836 0 l0 2.5781 z M157.2509734375 20 l5.498 -7.3633 l-5.3418 -6.748 l3.5645 0 l3.5156 4.6289 l3.5156 -4.6289 l3.5645 0 l-5.3418 6.748 l5.498 7.3633 l-3.7305 0 l-3.5059 -4.9902 l-3.5059 4.9902 l-3.7305 0 z M187.011953125 5.888999999999999 l0 2.5781 l-3.3496 0 l0 11.533 l-2.9004 0 l0 -11.533 l-3.3691 0 l0 -2.5781 l9.6191 0 z"></path></g>
			</g>
		</svg>
	